<?xml version="1.0" encoding="utf-8"?>
<!-- Generator: Adobe Illustrator 19.2.1, SVG Export Plug-In . SVG Version: 6.00 Build 0)  -->
<svg version="1.1" id="图层_1" xmlns="http://www.w3.org/2000/svg" xmlns:xlink="http://www.w3.org/1999/xlink" x="0px" y="0px"
	 viewBox="0 0 900 900" style="enable-background:new 0 0 900 900;" xml:space="preserve">
<style type="text/css">
	.st0{fill:#333333;}
</style>
<path id="pressed" class="st0" d="M450,0C201.5,0,0,201.5,0,450s201.5,450,450,450s450-201.5,450-450l0,0C900,201.5,698.5,0,450,0z
	 M767.2,713.4c-41.1-17.2-138.2-50.8-198.3-68.6c-5.2-1.6-6-1.8-6-23.2c1.1-17.6,6-34.8,14.3-50.4c9.8-21.8,16.6-44.8,20-68.4
	c15.7-20.8,25.9-45.3,29.5-71.2c6.2-19.5,5.9-40.5-0.9-59.8c-0.6-1.2-1-2.5-1.4-3.8c-0.8-28.2,1.4-56.3,6.6-84
	c4.1-39.9-7.5-79.7-32.3-111.2c-31.2-37.9-77.6-60.1-126.7-60.6h-37.9c-48.7,0.8-94.6,22.9-125.6,60.6
	c-24.8,31.5-36.4,71.3-32.4,111.2c5.2,27.7,7.5,55.8,6.7,84c-0.4,1.3-0.8,2.6-1.4,3.8c-6.8,19.3-7.1,40.3-0.9,59.8
	c3.6,25.9,13.8,50.4,29.5,71.2c3.4,23.6,10.2,46.6,20,68.4c6.4,16.3,9.2,33.7,8.2,51.2c0,21.4-0.8,21.6-5.6,23
	c-62.2,18.4-161.1,54.2-198,70.4C-12.2,541.7,9.8,281.5,183.9,134.5s434.3-125,581.3,49.1C894.1,336.4,894.9,559.7,767.2,713.4z"/>
</svg>
