<?xml version="1.0" encoding="utf-8"?>
<!-- Generator: Adobe Illustrator 19.2.1, SVG Export Plug-In . SVG Version: 6.00 Build 0)  -->
<svg version="1.1" id="图层_1" xmlns="http://www.w3.org/2000/svg" xmlns:xlink="http://www.w3.org/1999/xlink" x="0px" y="0px"
	 viewBox="0 0 900 900" style="enable-background:new 0 0 900 900;" xml:space="preserve">
<style type="text/css">
	.st0{fill:#333333;}
</style>
<path id="圆角矩形_100" class="st0" d="M450,900C201.5,900,0,698.5,0,450S201.5,0,450,0s450,201.5,450,450S698.5,900,450,900z
	 M449.4,80.5c-203.8,0-369,165.2-369,369s165.2,369,369,369s369-165.2,369-369S653.2,80.5,449.4,80.5L449.4,80.5z M720,495H450
	c-24.9,0-45-20.1-45-45V225c0-24.9,20.1-45,45-45s45,20.1,45,45v180h225c24.9,0,45,20.1,45,45S744.9,495,720,495z"/>
</svg>
