<?xml version="1.0" encoding="utf-8"?>
<!-- Generator: Adobe Illustrator 19.2.1, SVG Export Plug-In . SVG Version: 6.00 Build 0)  -->
<svg version="1.1" id="图层_1" xmlns="http://www.w3.org/2000/svg" xmlns:xlink="http://www.w3.org/1999/xlink" x="0px" y="0px"
	 viewBox="0 0 900 900" style="enable-background:new 0 0 900 900;" xml:space="preserve">
<style type="text/css">
	.st0{fill:#333333;}
</style>
<g>
	<g transform="scale(0.1953125, 0.1953125)">
		<path class="st0" d="M4495.5,44.1c-70-47.6-159.5-57.4-238.5-25.9L2304,799.6L351,18.2C272.1-13.3,182.7-3.5,112.4,44.1
			S0,171.1,0,256.1v3276.7c0,104.8,63.8,198.7,160.7,237.8l2043.7,817.5c0,0,42,13.5,49.8,15c16.6,3.2,33.2,4.9,49.8,4.9
			s33.2-1.7,49.6-4.9c7.7-1.5,49.8-15.6,49.8-15.6l2043.4-817c97.5-39,161.2-133,161.2-237.8V256.1
			C4608,171.1,4565.8,91.7,4495.5,44.1z M4357.5,3525.4L2496,4266.6V1082.7l1861.5-741.2V3525.4z M4003.3,2475.6l-1024.2,410V3162
			l1024.2-410V2475.6z M4003.3,1412.2L2979,1821.8v267.9l1024.2-409.6v-267.9H4003.3z M2149.4,4282.8L274.5,3539.1V354.9l1874.8,744
			L2149.4,4282.8L2149.4,4282.8z M1619.3,1878.1l-1024.2-410v276.5l1024.2,410V1878.1z M1619.3,2950.1L595.1,2540.6v267.7
			L1619.3,3218L1619.3,2950.1L1619.3,2950.1z"/>
	</g>
</g>
</svg>
