<?xml version="1.0" encoding="utf-8"?>
<!-- Generator: Adobe Illustrator 19.2.1, SVG Export Plug-In . SVG Version: 6.00 Build 0)  -->
<svg version="1.1" id="图层_1" xmlns="http://www.w3.org/2000/svg" xmlns:xlink="http://www.w3.org/1999/xlink" x="0px" y="0px"
	 viewBox="0 0 900 900" style="enable-background:new 0 0 900 900;" xml:space="preserve">
<style type="text/css">
	.st0{fill:#333333;}
</style>
<g>
	<g transform="scale(0.1953125, 0.1953125)">
		<path class="st0" d="M4543.9,714.1l-2085.1-667L2304,0l-154.9,47.1l-2085,667c-85.5,87.1-85.5,228.2,0,315.2l1027.8,257
			c-43.1,35.8-85,73.9-125.4,114.3c-723.3,723-710.9,1907.4,27.8,2645.6c645.4,645.1,1631.7,735.9,2353,266.4l683.3,153.5
			l-171.3-654.7c493.4-723.4,409.3-1728.6-245.5-2383.1c-46.3-46.3-94.4-89.8-144.1-130.4l-330.1,82.5c95,61,185,132.8,268.1,215.9
			c551.8,551.5,616.2,1405.1,192.1,2023.4l143,558.3l-582.7-127.7c-616.4,403.8-1453.8,333.4-1997.7-210.1
			c-622.7-622.4-624.8-1629.1-4.8-2248.7c85.1-85.1,177.5-158.3,275.3-220l-94.4-23.6l533.6,133.4l144,36l288,66.7l292.5-67.9
			l144-36L4544,1029.2C4629.4,942.2,4629.4,801.1,4543.9,714.1z M2670.7,1200.7l-141.7,35.4l-225,52.2l-220.5-51.1l-141.6-35.4
			L562.5,857l1672.4-535l69.1-21l69,21l1672.5,535L2670.7,1200.7z M2620,3073.5c119.4-87.8,203.4-160.2,279.3-247.3
			c81.7-93.9,122.6-198,122.6-311.3c0-158.3-63.2-281.7-189.8-370c-126.6-88.3-299.9-130.8-528.5-130.8
			c-208.8,0-391.7,36.7-520.5,127.1c-135.2,95.2-200.3,315.8-196.9,459.8h159.3H1905c0-85.5,16.7-235.5,124.5-303.6
			c72-45.6,164.3-65.7,269.9-65.7c121.8,0,215.5,24.8,281.1,74.8c65.6,50.1,98.2,121.7,98.2,214.8c0,78.3-24.2,145.1-73,200.5
			c-48.6,55.3-129.4,135.7-245.4,237.2c-74.4,65.1-102.6,119.9-116.6,169.6c-6.2,22-19.7,57.5-19.7,291.5h318.8
			C2542.9,3145.5,2543.6,3129.6,2620,3073.5z M2227.5,3654h315v234h-315V3654z"/>
	</g>
</g>
</svg>
