<?xml version="1.0" encoding="utf-8"?>
<!-- Generator: Adobe Illustrator 19.2.1, SVG Export Plug-In . SVG Version: 6.00 Build 0)  -->
<svg version="1.1" id="图层_1" xmlns="http://www.w3.org/2000/svg" xmlns:xlink="http://www.w3.org/1999/xlink" x="0px" y="0px"
	 viewBox="0 0 900 900" style="enable-background:new 0 0 900 900;" xml:space="preserve">
<style type="text/css">
	.st0{fill:#333333;}
</style>
<path id="学校" class="st0" d="M775.9,675.9v158.3c0.2,36.2-29,65.6-65.2,65.8c0,0,0,0-0.1,0H189.2c-36.2-0.1-65.4-29.5-65.3-65.7
	c0,0,0,0,0-0.1V675.9l-45.2,34.6V470.8l360-274.7V0h22.5v196.1l360,274.7v239.7L775.9,675.9z M528.8,630c-0.1-2.1-0.3-4.2-0.6-6.2
	c0-1.6,0.5-3.2,0.5-4.8c0.7-43.4-33.9-79.2-77.3-79.9s-79.2,33.9-79.9,77.3c0,0.9,0,1.8,0,2.7c0,1.6,0.4,3.2,0.5,4.8
	c-0.4,2.1-0.6,4.1-0.7,6.2v112.5c0,24.9,20.1,45,45,45h67.5c24.9,0,45-20.1,45-45L528.8,630L528.8,630z M461.5,45.2l157.2,112.5
	H461.5V45.2z"/>
</svg>
