<?xml version="1.0" encoding="utf-8"?>
<!-- Generator: Adobe Illustrator 19.2.1, SVG Export Plug-In . SVG Version: 6.00 Build 0)  -->
<svg version="1.1" id="图层_1" xmlns="http://www.w3.org/2000/svg" xmlns:xlink="http://www.w3.org/1999/xlink" x="0px" y="0px"
	 viewBox="0 0 900 900" style="enable-background:new 0 0 900 900;" xml:space="preserve">
<style type="text/css">
	.st0{fill:#333333;}
</style>
<title>Shape</title>
<desc>Created with Sketch.</desc>
<g id="Page-1">
	<g id="微课程_04_课程详情" transform="translate(-14.000000, -460.000000)">
		<g id="Group-11" transform="translate(14.000000, 458.000000)">
			<g id="视频" transform="translate(0.000000, 2.000000)">
				<g id="Group" transform="translate(0.835938, 0.835938)">
					<path id="Shape" class="st0" d="M449.2-0.8c-249,0-450,201-450,450s201.8,450,450,450s450-201.8,450-450
						C899.2,200.2,698.1-0.8,449.2-0.8L449.2-0.8z M449.2,832.2c-211.7,0-383-171.3-383-383s171.3-383,383-383s383,171.3,383,383
						S660.8,832.2,449.2,832.2L449.2,832.2z M621.2,417.9L389,283.9c-23.6-13.7-54.1,3.8-54.1,31.2v268.8
						c0,27.4,29.7,44.9,54.1,31.2l232.2-134C644.8,466.7,644.8,431.7,621.2,417.9L621.2,417.9z"/>
				</g>
			</g>
		</g>
	</g>
</g>
</svg>
