<?xml version="1.0" encoding="utf-8"?>
<!-- Generator: Adobe Illustrator 19.2.1, SVG Export Plug-In . SVG Version: 6.00 Build 0)  -->
<svg version="1.1" id="图层_1" xmlns="http://www.w3.org/2000/svg" xmlns:xlink="http://www.w3.org/1999/xlink" x="0px" y="0px"
	 viewBox="0 0 900 900" style="enable-background:new 0 0 900 900;" xml:space="preserve">
<style type="text/css">
	.st0{fill:#333333;}
</style>
<title>Shape</title>
<desc>Created with Sketch.</desc>
<g id="Page-1">
	<g id="微课程_01_首页" transform="translate(-53.000000, -82.000000)">
		<g id="Group-10" transform="translate(0.000000, 64.000000)">
			<g id="Group-8" transform="translate(53.000000, 13.000000)">
				<path id="Shape" class="st0" d="M895.9,232.1c-39.5-29.1-59.7-60.8-59.9-94.2c-0.3-42.4,31.4-78.3,48.9-94.9
					c3-0.7,5.8-1.9,8.5-3.7c4.1-2.7,6.3-7,6.6-12.7c0.1-1,0.2-2,0-3c-0.7-10.1-8.2-15.1-22.6-15.1H124.6c-23.3,0-42.9,4.6-58.7,13.7
					c-15.8,9.2-28.7,21.7-38.6,37.7c-10,16-17,35.1-21.1,57.3S0,163.4,0,188.8v568.6c0,50.3,14.1,86.8,42.2,109.3
					s68.3,33.8,120.5,33.8h35h70h95.8c35,0,70.9,0.2,107.6,0.5s72.6,0.5,107.6,0.5h96.8h72.1h36c19.2,0,36-3.8,50.5-11.3
					c14.4-7.5,26.4-18,36-31.4s17-29.2,22.1-47.5s7.7-37.9,7.7-58.8V241.2C900.3,237.8,898.8,234.3,895.9,232.1L895.9,232.1z
					 M545.7,241.3H413.9c-43.9,0-83.2,0.2-117.9,0.5s-63.3,0.5-86,0.5h-38c-14.4,0-28.5-4.1-42.2-12.3s-26.1-19.3-37.1-33.3
					c-11-14.1-28-31.8-26.3-59.3c4.7-22.7,16.6-36.8,28.3-50.5s24.5-24.3,38.6-31.9c14.1-7.5,28-11.3,41.7-11.3h680.5
					c-18.9,21.7-40.5,55-40.2,94.2c0.2,36.9,19.6,71.3,57.7,102.3C752.6,240.3,643.5,240.6,545.7,241.3L545.7,241.3z M89.8,269.9
					h30.9v588.8H89.8V269.9L89.8,269.9z"/>
			</g>
		</g>
	</g>
</g>
</svg>
