<?xml version="1.0" encoding="utf-8"?>
<!-- Generator: Adobe Illustrator 19.2.1, SVG Export Plug-In . SVG Version: 6.00 Build 0)  -->
<svg version="1.1" id="图层_1" xmlns="http://www.w3.org/2000/svg" xmlns:xlink="http://www.w3.org/1999/xlink" x="0px" y="0px"
	 viewBox="0 0 900 900" style="enable-background:new 0 0 900 900;" xml:space="preserve">
<style type="text/css">
	.st0{fill:#333333;}
</style>
<title>Shape</title>
<desc>Created with Sketch.</desc>
<g id="Page-1">
	<g id="微课程_01_首页" transform="translate(-10.000000, -846.000000)">
		<path id="Shape" class="st0" d="M603.5,1112.9c-14-5.7-30.1,0.9-35.9,14.9l-102.4,248.6c-1.5-0.1-3-0.1-4.5-0.1
			c-41.3,0-74.8,33.5-74.8,74.6c0,22.3,9.9,42.4,25.5,56l-23.7,57.4c-5.8,14,0.9,30,15,35.8c3.4,1.4,6.9,2.1,10.4,2.1
			c10.8,0,21.1-6.4,25.4-17l24.6-59.8c40.1-1.3,72.3-34.2,72.3-74.5c0-19.8-7.8-37.8-20.5-51.2l103.4-251
			C624.3,1134.7,617.5,1118.7,603.5,1112.9L603.5,1112.9z M789.6,1040.2l-1.4-1.4C648,913.4,508.8,897,416.8,905.3
			c-121.6,11-233.8,72-307.9,167.4l-0.2,0.3c-67.2,88.9-100.4,184.1-98.6,283c3.4,186.4,129.1,318.7,134.5,324.2
			c5.4,5.6,12.6,8.4,19.8,8.4c6.8,0,13.7-2.5,19-7.6c10.9-10.5,11.3-27.8,0.8-38.7c-1.1-1.1-97.9-103.7-116.2-247.5h25.5
			c15.2,0,27.5-12.3,27.5-27.4c0-15.1-12.3-27.4-27.5-27.4H65.1c1.9-81,31.3-159.5,87.4-233.8c3.3-4.3,6.8-8.5,10.3-12.6l22.1,19.7
			c5.2,4.7,11.8,7,18.3,7c7.5,0,15.1-3.1,20.5-9.1c10.1-11.3,9.2-28.6-2.2-38.7l-20.2-18c60.8-53.4,138.2-87.1,220.5-94.5
			c3.8-0.3,7.7-0.6,11.7-0.9v21.1c0,15.1,12.3,27.4,27.5,27.4c15.2,0,27.5-12.3,27.5-27.4v-20.6c66.4,5.4,147.2,28.9,230.6,93
			l-19,15.4c-11.8,9.5-13.6,26.8-4.1,38.5c5.4,6.7,13.4,10.2,21.4,10.2c6.1,0,12.2-2,17.3-6.1l26.1-21
			c75.8,84.6,94.8,177.7,94.5,250.4h-37.6c-15.2,0-27.5,12.3-27.5,27.4c0,15.1,12.3,27.4,27.5,27.4h33.7
			c-12.3,90.1-53.6,178.1-112.9,238.9c-10.6,10.9-10.3,28.2,0.6,38.7c10.9,10.5,28.3,10.3,38.9-0.6
			c72.5-74.4,121.3-184.3,130.6-293.8C919.2,1250.5,877,1130.6,789.6,1040.2L789.6,1040.2z"/>
	</g>
</g>
</svg>
