<?xml version="1.0" encoding="utf-8"?>
<!-- Generator: Adobe Illustrator 19.2.1, SVG Export Plug-In . SVG Version: 6.00 Build 0)  -->
<svg version="1.1" id="图层_1" xmlns="http://www.w3.org/2000/svg" xmlns:xlink="http://www.w3.org/1999/xlink" x="0px" y="0px"
	 viewBox="0 0 900 900" style="enable-background:new 0 0 900 900;" xml:space="preserve">
<style type="text/css">
	.st0{fill:#333333;}
</style>
<title>Shape</title>
<desc>Created with Sketch.</desc>
<g id="Page-1">
	<g id="微课程_01_首页" transform="translate(-10.000000, -1129.000000)">
		<path id="Shape" class="st0" d="M910,1741.8l-165.4-24.8L670.8,1564l-74.1,152.9l-165.4,24.3l119.5,119.3l-28.4,168.1l148-79.2
			l147.8,79.6l-28-168.2L910,1741.8L910,1741.8z M670.4,1902l-93.4,50l17.9-106.1l-75.4-75.2l104.4-15.4l46.8-96.5l46.6,96.6
			l104.3,15.6l-75.6,75l17.7,106.1L670.4,1902L670.4,1902z M537.9,1609.4c15.8,8.5,31.2,18.3,45.6,29.1l24.3-33.8
			c-11.4-8.5-23.2-16.4-35.4-23.7c48.9-47.8,79.4-115.1,79.4-189.5c0-144.7-115.3-262.5-257.1-262.5
			c-141.8,0-257.1,117.8-257.1,262.5c0,73.1,29.4,139.3,76.8,186.9c-57.7,33.4-106.5,80.7-142.2,138.2
			C31.5,1782.3,10,1859.1,10,1936h41.1c0-138.3,75.4-265.2,197.1-329c41.6,29.6,92.1,46.9,146.5,46.9
			C447.7,1654,497,1637.5,537.9,1609.4L537.9,1609.4z M178.8,1391.5c0-121.6,96.9-220.5,216-220.5c119.1,0,216,98.9,216,220.5
			c0,121.6-96.9,220.5-216,220.5C275.7,1612,178.8,1513.1,178.8,1391.5L178.8,1391.5z"/>
	</g>
</g>
</svg>
