<?xml version="1.0" encoding="utf-8"?>
<!-- Generator: Adobe Illustrator 19.2.1, SVG Export Plug-In . SVG Version: 6.00 Build 0)  -->
<svg version="1.1" id="图层_1" xmlns="http://www.w3.org/2000/svg" xmlns:xlink="http://www.w3.org/1999/xlink" x="0px" y="0px"
	 viewBox="0 0 900 900" style="enable-background:new 0 0 900 900;" xml:space="preserve">
<style type="text/css">
	.st0{fill:#333333;}
</style>
<title>Shape</title>
<desc>Created with Sketch.</desc>
<g id="Page-1">
	<g id="微课程_02_专题课程" transform="translate(-320.000000, -401.000000)">
		<g id="Group-12" transform="translate(190.000000, 271.000000)">
			<g id="Group-4-Copy-3">
				<g id="Group-7">
					<g id="Group-6" transform="translate(0.000000, 99.000000)">
						<g id="Group-Copy-15" transform="translate(10.000000, 10.000000)">
							<g id="Group-5">
								<path id="Shape" class="st0" d="M922.7,880.1H217.3c-53.7,0-97.3-44.4-97.3-99.2V161.1c0-54.8,43.6-99.2,97.3-99.2h705.4
									c53.7,0,97.3,44.4,97.3,99.2v619.8C1020,835.7,976.4,880.1,922.7,880.1L922.7,880.1L922.7,880.1z M947,185.9
									c0-27.4-21.8-49.6-48.6-49.6H241.6c-26.9,0-48.7,22.2-48.7,49.6v570.2c0,27.4,21.8,49.6,48.7,49.6h656.8
									c26.9,0,48.6-22.2,48.6-49.6V185.9L947,185.9L947,185.9z M710.3,502.9L524.3,623c-12.8,8.3-28.3,9.1-42.1,2.2
									c-13.7-6.9-21.7-19.4-21.7-34.1V350.9c0-14.8,8-27.3,21.7-34.2c13.8-6.9,29.2-6.1,42.1,2.2l186,120.1
									c11.5,7.4,17.8,18.7,17.8,31.9C728.1,484.2,721.8,495.4,710.3,502.9L710.3,502.9L710.3,502.9z"/>
							</g>
						</g>
					</g>
				</g>
			</g>
		</g>
	</g>
</g>
</svg>
